<?xml version="1.0" encoding="utf-8"?>
<!-- Svg Vector Icons : http://www.onlinewebfonts.com/icon -->
<!DOCTYPE svg PUBLIC "-//W3C//DTD SVG 1.1//EN" "http://www.w3.org/Graphics/SVG/1.1/DTD/svg11.dtd">
<svg version="1.1" xmlns="http://www.w3.org/2000/svg" xmlns:xlink="http://www.w3.org/1999/xlink" x="0px" y="0px" viewBox="0 0 1000 1000" enable-background="new 0 0 1000 1000" xml:space="preserve">
<metadata> Svg Vector Icons : http://www.onlinewebfonts.com/icon </metadata>
<g><path fill="#000000" d="M228.4,985.6c-4.9,0-9.8-2.2-13-6.4c-5.6-7.2-4.3-17.6,2.9-23.2c36.5-28.4,116.4-29.8,123.5-28.9h444.9c51.8,0,74.5-23.7,97.4-101.4l70-280.2c10.4-64.2-8-102.2-25.4-122.6c-18.3-21.6-44.6-34-71.9-34l-172.2,0.6h0c-6.1,0-11.7-3.3-14.5-8.6c-2.9-5.4-2.6-11.9,0.7-17L741.9,256c62.6-123.2-28.7-190.6-32.6-193.4c-17.6-13.1-33.2-17.6-46.7-13.6C637,56.4,623.2,91.4,623,91.8C477.9,396.4,243,384.8,233.2,384.1H93.8c-8.4,0.2-51.4,3.6-50.8,57.9v428.7c1.8,54.9,45.4,58.8,50.4,59l32.6,1.4l-0.5-82.4V451.9c0-9.1,7.4-16.5,16.5-16.5c9.1,0,16.5,7.4,16.5,16.5l0.6,496.5c0,4.5-1.8,8.8-5,12c-3.3,3.2-7.8,4.3-12.2,4.6l-50-2.1c-27.3-1-79.7-21.4-82-91.5V442.3c-0.3-27.4,7.6-49.6,23.6-65.9c24.5-24.8,58.7-25.3,60.2-25.3h140.5c9.9,0.6,223.9,10.1,358.4-272.3c0.3-0.8,19-49.5,60.6-61.7c24-7,49.4-0.7,75.5,18.6c0.8,0.6,118.4,85.9,41.6,236.7l-55.1,83.8l141.5-0.5c37.1,0,72.5,16.6,97.1,45.6c21.8,25.7,45.2,72.6,32.5,150.6l-70.5,282.3c-23,77.9-52.5,125.8-129.3,125.8h-445c-0.1,0-0.2,0-0.3,0c-21.1,0-79.6,4-102.7,22C235.5,984.5,231.9,985.6,228.4,985.6z"/><path d="M191.7,415.8"/></g>
</svg>