<?xml version="1.0" encoding="iso-8859-1"?>
<!-- Generator: Adobe Illustrator 19.0.0, SVG Export Plug-In . SVG Version: 6.00 Build 0)  -->
<svg version="1.1" id="Layer_1" xmlns="http://www.w3.org/2000/svg" xmlns:xlink="http://www.w3.org/1999/xlink" x="0px" y="0px"
	 viewBox="0 0 511.999 511.999" style="enable-background:new 0 0 511.999 511.999;" xml:space="preserve">
<g>
	<g>
		<path fill="#FFFFFF" d="M303.333,371.399c-2.199-10.239,0.445-20.745,7.302-28.785c-0.898-3.627-2.216-7.087-3.892-10.335l-38.052-16.761
			c-4.553-2.005-8.64-5.044-12.007-9.203c-3.354,4.144-7.429,7.186-12.007,9.203l-39.817,17.539
			c-1.69,3.427-2.977,7.084-3.807,10.911c5.944,7.737,8.155,17.341,6.349,26.73l-7.435,38.643v84.39
			c0,7.584,6.15,13.734,13.734,13.734s13.734-6.15,13.734-13.734V354.067c0-11.137,9.061-20.198,20.198-20.198
			c15.748,0,16.605,0,16.736,0c11.137,0,20.198,9.061,20.198,20.198V493.73c0,7.584,6.15,13.734,13.734,13.734
			s13.734-6.15,13.734-13.734v-81.787L303.333,371.399z"/>
	</g>
</g>
<g>
	<g>
		<path fill="#FFFFFF" d="M498.266,306.399h-4.33c-3.099,3.826-7.123,6.997-11.939,9.118l-39.817,17.539c-1.69,3.427-2.977,7.084-3.807,10.911
			c5.944,7.737,8.155,17.341,6.349,26.73l-7.435,38.643v84.39c0,7.584,6.15,13.734,13.734,13.734s13.734-6.15,13.734-13.734V354.067
			c0-11.137,9.061-20.198,20.198-20.198h13.312c7.584,0,13.734-6.15,13.734-13.734S505.852,306.399,498.266,306.399z"/>
	</g>
</g>
<g>
	<g>
		<path fill="#FFFFFF" d="M375.344,324.528c-2.642,7.743-7.897,13.76-14.465,17.488c3.836,4.243,6.624,9.483,7.881,15.34
			c2.385,11.109,2.684,12.504,5.476,25.51c2.657-13.811,2.079-10.802,4.774-24.81c1.282-6.667,4.508-12.553,9.011-17.128
			C382.27,337.145,377.735,331.536,375.344,324.528z"/>
	</g>
</g>
<g>
	<g>
		<circle fill="#FFFFFF" cx="375.436" cy="147.904" r="37.605"/>
	</g>
</g>
<g>
	<g>
		<path fill="#FFFFFF" d="M355.832,478.508l11.933-62.016l-12.09-56.329c-2.327-10.842-13.001-17.748-23.842-15.416
			c-10.841,2.327-17.742,13.001-15.416,23.842l25.854,120.454c1.989,9.267,10.169,15.865,19.651,15.865
			C356.309,497.409,354.009,487.979,355.832,478.508z"/>
	</g>
</g>
<g>
	<g>
		<path fill="#FFFFFF" d="M415.66,344.661c-10.885-2.095-21.412,5.031-23.507,15.922l-23.178,120.454c-2.376,12.343,7.069,23.872,19.736,23.872
			c9.433,0,17.844-6.68,19.692-16.286l23.178-120.454C433.675,357.281,426.548,346.757,415.66,344.661z"/>
	</g>
</g>
<g>
	<g>
		<path fill="#FFFFFF" d="M66.01,371.397c-1.876-8.738-0.237-17.683,4.617-25.189c0.82-1.269,1.722-2.465,2.686-3.595
			c-0.898-3.627-2.216-7.087-3.892-10.335L31.37,315.518c-4.816-2.121-8.84-5.292-11.939-9.118h-5.696
			C6.15,306.399,0,312.549,0,320.133s6.15,13.734,13.734,13.734h13.312c11.137,0,20.198,9.061,20.198,20.198v139.664
			c0,7.584,6.15,13.734,13.734,13.734s13.734-6.15,13.734-13.734v-81.787L66.01,371.397z"/>
	</g>
</g>
<g>
	<g>
		<path fill="#FFFFFF" d="M138.022,324.528c-2.642,7.743-7.897,13.76-14.465,17.488c3.836,4.243,6.625,9.483,7.881,15.34
			c2.385,11.109,2.684,12.504,5.476,25.51c2.657-13.811,2.079-10.802,4.774-24.81c1.282-6.667,4.508-12.553,9.011-17.128
			C144.947,337.145,140.413,331.536,138.022,324.528z"/>
	</g>
</g>
<g>
	<g>
		<path fill="#FFFFFF" d="M248.636,279.519c-5.091-12.692-16.413-38.337-26.31-58.704c-6.887-14.165-21.52-23.318-37.276-23.318
			c-11.677,0-82.332,0-94.055,0c-15.755,0-30.387,9.153-37.273,23.317c-9.678,19.887-21.334,46.255-26.313,58.707
			c-3.633,9.079,0.583,19.403,9.531,23.346c72.276,31.837,62.636,27.599,63.884,28.117c11.882,5.179,20.648-2.855,23.545-9.433
			c4.039-9.17-0.12-19.88-9.291-23.919l-47.153-20.771c5.335-12.26,12.171-27.304,18.43-40.177c0.028-0.057,0.056-0.112,0.086-0.168
			c0.393-0.736,1.237-1.11,2.047-0.908c0.81,0.202,1.376,0.931,1.376,1.765v34.046l30.787,13.561
			c8.525,3.755,14.588,10.782,17.373,18.956c2.784-8.173,8.848-15.201,17.373-18.956l30.574-13.468v-34.099
			c0-0.883,0.599-1.653,1.456-1.87c0.856-0.216,1.751,0.176,2.17,0.953c0.032,0.06,0.063,0.121,0.095,0.184
			c6.39,13.148,13.203,28.166,18.43,40.18l-47.152,20.77c-9.17,4.04-13.329,14.748-9.291,23.919
			c2.589,5.875,11.937,13.696,23.68,9.382c1.259-0.534,13.637-5.992,63.749-28.066C248.055,298.923,252.27,288.598,248.636,279.519z
			"/>
	</g>
</g>
<g>
	<g>
		<circle fill="#FFFFFF" cx="138.118" cy="147.904" r="37.605"/>
	</g>
</g>
<g>
	<g>
		<path fill="#FFFFFF" d="M118.51,478.508l11.933-62.016l-12.09-56.329c-2.327-10.842-13.001-17.748-23.842-15.416
			c-10.841,2.327-17.742,13.001-15.416,23.842l25.854,120.454c1.989,9.267,10.169,15.865,19.651,15.865
			C118.987,497.409,116.687,487.979,118.51,478.508z"/>
	</g>
</g>
<g>
	<g>
		<path fill="#FFFFFF" d="M178.337,344.661c-10.885-2.095-21.412,5.031-23.507,15.922l-23.178,120.454c-2.095,10.888,5.033,21.413,15.921,23.507
			c10.887,2.094,21.413-5.033,23.507-15.921l23.178-120.454C196.353,357.281,189.226,346.757,178.337,344.661z"/>
	</g>
</g>
<g>
	<g>
		<path fill="#FFFFFF" d="M485.959,279.521c-4.888-12.188-16.099-37.69-26.31-58.704c-6.887-14.166-21.52-23.318-37.276-23.318
			c-11.68,0-82.335,0-94.058,0c-15.755,0-30.387,9.153-37.273,23.317c-9.675,19.886-21.332,46.254-26.311,58.706
			c-3.573,8.929,0.496,19.365,9.531,23.346l63.509,27.975c0.123,0.055,0.25,0.091,0.375,0.142
			c9.349,3.877,19.668-0.632,23.545-9.433c4.039-9.17-0.12-19.88-9.291-23.919l-47.153-20.77
			c5.388-12.381,12.279-27.527,18.43-40.177c0.028-0.057,0.056-0.112,0.086-0.168c0.393-0.736,1.237-1.11,2.047-0.908
			c0.81,0.202,1.376,0.931,1.376,1.765v34.046l30.787,13.562c8.525,3.755,14.588,10.782,17.373,18.956
			c2.784-8.173,8.848-15.201,17.373-18.956l30.574-13.468v-34.099c0-0.883,0.599-1.653,1.456-1.87
			c0.856-0.216,1.751,0.176,2.17,0.953c0.032,0.06,0.063,0.121,0.095,0.184c6.252,12.864,13.101,27.931,18.43,40.18l-47.152,20.77
			c-9.17,4.04-13.329,14.748-9.291,23.919c3.95,8.964,14.424,13.303,23.68,9.382c0.079-0.033,0.16-0.057,0.24-0.091l63.509-27.975
			C485.377,298.925,489.593,288.6,485.959,279.521z"/>
	</g>
</g>
<g>
	<g>
		<path fill="#FFFFFF" d="M256.001,4.535c-34.972,0-63.322,28.35-63.322,63.322s28.35,63.322,63.322,63.322s63.322-28.35,63.322-63.322
			S290.972,4.535,256.001,4.535z M264.241,67.857c0,2.848-1.471,5.494-3.889,6.998L240.847,86.98
			c-1.354,0.842-2.858,1.243-4.343,1.243c-2.753,0-5.444-1.38-7.005-3.891c-2.405-3.864-1.219-8.946,2.646-11.348l15.615-9.708
			V28.34c0-4.551,3.689-8.241,8.241-8.241s8.241,3.689,8.241,8.241V67.857z"/>
	</g>
</g>
<g>
</g>
<g>
</g>
<g>
</g>
<g>
</g>
<g>
</g>
<g>
</g>
<g>
</g>
<g>
</g>
<g>
</g>
<g>
</g>
<g>
</g>
<g>
</g>
<g>
</g>
<g>
</g>
<g>
</g>
</svg>
